<svg width="16" height="21" viewBox="0 0 16 21" fill="none" xmlns="http://www.w3.org/2000/svg">
<path fill-rule="evenodd" clip-rule="evenodd" d="M7.19 0.171507C7.52832 -0.0571691 7.97168 -0.0571691 8.31 0.171507C8.6 0.361507 15.5 5.05151 15.5 12.2515C15.5 16.5317 12.0302 20.0015 7.75 20.0015C3.46979 20.0015 0 16.5317 0 12.2515C0 5.17151 6.89 0.371507 7.19 0.171507ZM2 12.2515C2.0055 15.4249 4.57665 17.996 7.75 18.0015C10.9234 17.996 13.4945 15.4249 13.5 12.2515C13.5 7.25151 9.3 3.46151 7.75 2.25151C6.21 3.48151 2 7.25151 2 12.2515Z" fill="black"/>
</svg>
